<?xml version="1.0" encoding="utf-8"?>
<!-- Generator: Adobe Illustrator 24.0.0, SVG Export Plug-In . SVG Version: 6.00 Build 0)  -->
<svg version="1.1" id="Layer_1" xmlns="http://www.w3.org/2000/svg" xmlns:xlink="http://www.w3.org/1999/xlink" x="0px" y="0px"
	 viewBox="0 0 634.67 432.86" style="enable-background:new 0 0 634.67 432.86;" xml:space="preserve">
<style type="text/css">
	.st0{fill:#ED1C24;}
	.st1{fill:#808285;}
	.st2{fill:#FFFFFF;}
</style>
<g>
	<polygon class="st0" points="88.37,139.12 88.37,174.02 152.73,235.78 152.73,202.89 	"/>
	<path class="st1" d="M166.36,234.72V202.5l71.36-69.14V260.9h65.06c0,0,21.69-2.01,21.69-20.81s-25.88-19.47-25.88-19.47
		s-36.45,4.15-48.97-23.5c0,0-22.08-63.77,37.78-63.77h54.57l-20.29,25.51h-36.38c0,0-17.35,0.33-13.29,22.82
		c0,0,2.82,14.62,22.39,15.44c0,0,50.93-2.46,52.47,32.89c1.61,36.89-12.77,46.03-24.87,50.28c0,0-5.45,2.12-12.26,2.29
		s-96.91,0-96.91,0v-90.86L166.36,234.72z"/>
	<g>
		<g>
			<path class="st0" d="M356.67,313.57V163.94h19.7v128.43h32.73v21.2H356.67z"/>
		</g>
	</g>
	<g>
		<g>
			<path class="st0" d="M503.27,313.24h-24.56l-9.76-32.75h-44.69l-9.23,32.75h-23.95l43.55-144.17h23.87L503.27,313.24z
				 M461.7,256.2l-15.41-53.5l-15.1,53.5H461.7z"/>
		</g>
	</g>
	<g>
		<g>
			<path class="st0" d="M491.47,169.07h44.69c8.85,0,15.44,0.48,19.79,1.43c4.35,0.95,8.24,2.93,11.67,5.95
				c3.43,3.02,6.29,7.03,8.58,12.05c2.29,5.02,3.43,10.64,3.43,16.87c0,6.75-1.41,12.95-4.23,18.59
				c-2.82,5.64-6.65,9.87-11.48,12.69c6.81,2.56,12.05,6.92,15.71,13.08c3.66,6.16,5.49,13.41,5.49,21.73
				c0,6.56-1.18,12.93-3.54,19.13c-2.36,6.2-5.59,11.15-9.69,14.85c-4.09,3.71-9.14,5.98-15.14,6.84
				c-3.76,0.52-12.84,0.85-27.23,0.98h-38.06V169.07z M514.05,193.07v33.34h14.8c8.8,0,14.26-0.16,16.4-0.49
				c3.86-0.59,6.9-2.31,9.11-5.16c2.21-2.85,3.32-6.61,3.32-11.26c0-4.46-0.96-8.08-2.86-10.87c-1.91-2.79-4.74-4.47-8.5-5.06
				c-2.24-0.33-8.67-0.49-19.3-0.49H514.05z M514.05,250.4v38.55h20.9c8.13,0,13.3-0.3,15.48-0.89c3.35-0.79,6.09-2.7,8.2-5.75
				c2.11-3.05,3.17-7.13,3.17-12.24c0-4.33-0.81-8-2.44-11.01c-1.63-3.02-3.98-5.21-7.05-6.59c-3.08-1.38-9.75-2.06-20.02-2.06
				H514.05z"/>
		</g>
	</g>
	<g>
		<path class="st1" d="M59.4,364.56c-4.28,0-7.55-3.12-7.55-8.29c0-5.96,3.23-9.56,9.69-9.56c2.91,0,5.49,0.51,6.87,1.34v12.4h4.2
			v4.11H59.4z M60.17,341.74c0-1.26-1.25-2.25-2.67-2.25c-1.45,0-2.67,0.99-2.67,2.25c0,1.3,1.21,2.25,2.67,2.25
			C58.91,343.99,60.17,343.04,60.17,341.74z M62.31,350.43c-0.32-0.12-0.65-0.16-1.17-0.16c-2.18,0-3.03,1.66-3.03,5.57
			c0,3.75,1.05,4.62,3.15,4.62h1.09L62.31,350.43z M67.11,341.74c0-1.26-1.25-2.25-2.67-2.25c-1.45,0-2.67,0.99-2.67,2.25
			c0,1.3,1.21,2.25,2.67,2.25C65.86,343.99,67.11,343.04,67.11,341.74z"/>
		<path class="st1" d="M74.18,371.87c-1.45,0-2.63-0.95-2.63-2.21c0-1.3,1.17-2.29,2.63-2.29s2.67,0.99,2.67,2.29
			C76.84,370.92,75.63,371.87,74.18,371.87z M88.15,364.56v-4.11h-2.18c-1.41,0-2.18-0.71-2.18-1.86v-11.81h-6.3v13.19
			c-0.4,0.32-0.93,0.47-1.58,0.47h-3.64v4.11h1.94c3.19,0,5.01-0.79,6.1-1.54c1.01,0.79,2.71,1.54,5.74,1.54H88.15z M81.13,371.87
			c-1.41,0-2.63-0.95-2.63-2.21c0-1.3,1.21-2.29,2.63-2.29c1.45,0,2.67,0.99,2.67,2.29C83.79,370.92,82.58,371.87,81.13,371.87z"/>
		<path class="st1" d="M101.6,364.56c-3.03,0-4.73-0.75-5.74-1.54c-1.09,0.75-2.91,1.54-6.1,1.54h-1.94v-4.11h3.64
			c0.65,0,1.17-0.16,1.58-0.47v-13.19h6.3v11.81c0,1.15,0.77,1.86,2.18,1.86h2.18v4.11H101.6z M99.1,369.7
			c0-1.26-1.25-2.25-2.71-2.25c-1.41,0-2.63,0.99-2.63,2.25s1.21,2.25,2.63,2.25C97.85,371.95,99.1,370.96,99.1,369.7z"/>
		<path class="st1" d="M132.58,360.46v4.11h-29.2v-4.11h4.32v-20.1h6.3v11.33c0.12-0.28,3.23-5.21,8.56-5.21
			c4.24,0,7.63,3.67,7.63,9.48c0,1.7-0.4,3.24-0.89,4.5H132.58z M121.07,360.46c1.7-0.32,3.07-1.93,3.07-5.33
			c0-3-1.33-4.82-2.95-4.82c-2.38,0.04-5.61,2.65-9.29,10.15H121.07z"/>
		<path class="st1" d="M132.25,360.46h3.55c1.37,0,1.86-0.83,1.86-1.7v-19.63h6.3v19.19c0,4.54-2.75,6.24-8,6.24h-3.72V360.46z"/>
		<path class="st1" d="M149.01,364.56v-25.43h6.26v25.43H149.01z"/>
		<path class="st1" d="M189.56,364.56h-2.54c-0.81,0-1.49-0.04-2.14-0.12v0.43c0,4.5-4.73,7.07-9.41,7.07
			c-4.69,0-9.45-2.57-9.45-7.03v-11.25h6.3v11.18c0,1.62,1.98,2.29,3.15,2.29c1.25,0,3.11-0.71,3.11-2.29v-25.71h6.3v20.14
			c0.24,0.75,0.93,1.18,2.1,1.18h2.58V364.56z"/>
		<path class="st1" d="M191.1,371.87c-1.45,0-2.63-0.95-2.63-2.21c0-1.3,1.17-2.29,2.63-2.29s2.67,0.99,2.67,2.29
			C193.76,370.92,192.55,371.87,191.1,371.87z M205.07,364.56v-4.11h-2.18c-1.41,0-2.18-0.71-2.18-1.86v-11.81h-6.3v13.19
			c-0.4,0.32-0.93,0.47-1.58,0.47h-3.64v4.11h1.94c3.19,0,5.01-0.79,6.1-1.54c1.01,0.79,2.71,1.54,5.74,1.54H205.07z M198.04,371.87
			c-1.41,0-2.63-0.95-2.63-2.21c0-1.3,1.21-2.29,2.63-2.29c1.45,0,2.67,0.99,2.67,2.29C200.71,370.92,199.5,371.87,198.04,371.87z"
			/>
		<path class="st1" d="M204.75,360.46h3.55c1.37,0,1.86-0.83,1.86-1.7v-19.63h6.3v19.19c0,4.54-2.75,6.24-8,6.24h-3.72V360.46z"/>
		<path class="st1" d="M232.05,364.56h-2.54c-5.25,0-8-1.7-8-6.24v-19.19h6.26v19.63c0,0.87,0.52,1.7,1.9,1.7h2.38V364.56z"/>
		<path class="st1" d="M243.19,360.46v-8.02c0-1.42-1.05-1.9-2.75-1.9c-1.74,0-3.59,0.51-4.85,1.07l-1.29-3.47
			c1.33-0.55,4.04-1.34,7.55-1.34c4.36,0,7.59,1.78,7.59,6.71v6.95h1.94v4.11h-19.67v-4.11H243.19z"/>
		<path class="st1" d="M252.97,343.63c-1.45,0-2.63-0.95-2.63-2.21c0-1.3,1.17-2.29,2.63-2.29s2.67,0.99,2.67,2.29
			C255.63,342.69,254.42,343.63,252.97,343.63z M266.94,364.56v-4.11h-2.18c-1.41,0-2.18-0.71-2.18-1.86v-11.81h-6.3v13.19
			c-0.4,0.32-0.93,0.47-1.58,0.47h-3.64v4.11h1.94c3.19,0,5.01-0.79,6.1-1.54c1.01,0.79,2.71,1.54,5.74,1.54H266.94z M259.91,343.63
			c-1.41,0-2.63-0.95-2.63-2.21c0-1.3,1.21-2.29,2.63-2.29c1.45,0,2.67,0.99,2.67,2.29C262.58,342.69,261.37,343.63,259.91,343.63z"
			/>
		<path class="st1" d="M280.39,364.56c-3.03,0-4.73-0.75-5.74-1.54c-1.09,0.75-2.91,1.54-6.1,1.54h-1.94v-4.11h3.64
			c0.65,0,1.17-0.16,1.58-0.47v-20.85h6.3v19.47c0,1.15,0.77,1.86,2.18,1.86h2.18v4.11H280.39z"/>
		<path class="st1" d="M282.16,360.46h3.55c1.37,0,1.86-0.83,1.86-1.7v-19.63h6.3v19.19c0,4.54-2.75,6.24-8,6.24h-3.72V360.46z"/>
		<path class="st1" d="M326.19,360.46c2.02,0,2.3-0.71,2.3-2.09c-5.29-0.51-9.98-1.78-9.98-6.24c0-4.19,4.32-5.65,8.72-5.65
			c2.67,0,5.33,0.51,7.11,1.3v10.39c0,4.82-2.99,6.4-7.63,6.4h-14.78c-4.32,0-7.31-1.93-7.31-6.48v-11.29h6.3v11.97
			c0,0.87,0.52,1.7,1.9,1.7H326.19z M329.34,341.22c0,1.3-1.21,2.25-2.63,2.25c-1.5,0-2.67-0.95-2.67-2.25
			c0-1.26,1.17-2.25,2.67-2.25C328.13,338.97,329.34,339.96,329.34,341.22z M328.49,349.95c-0.48-0.16-0.97-0.24-1.45-0.24
			c-1.45,0-2.67,0.75-2.67,2.57c0,2.45,2.1,3.12,4.12,3.2V349.95z"/>
		<path class="st1" d="M345.29,358.76c0,1.03,0.77,1.7,2.14,1.7h1.98v4.11h-1.86c-0.81,0-1.49,0-2.26-0.36v0.36
			c0,5.25-3.51,7.38-8.24,7.38c-1.25,0-2.67-0.16-3.76-0.32c0.69-2.57,0.65-2.29,1.13-4.07c0.4,0.08,0.85,0.08,1.29,0.08
			c2.42,0,3.31-1.3,3.31-3v-17.85h6.26V358.76z"/>
		<path class="st1" d="M350.98,371.87c-1.45,0-2.63-0.95-2.63-2.21c0-1.3,1.17-2.29,2.63-2.29c1.45,0,2.67,0.99,2.67,2.29
			C353.65,370.92,352.44,371.87,350.98,371.87z M364.96,364.56v-4.11h-2.18c-1.41,0-2.18-0.71-2.18-1.86v-11.81h-6.3v13.19
			c-0.4,0.32-0.93,0.47-1.58,0.47h-3.63v4.11h1.94c3.19,0,5.01-0.79,6.1-1.54c1.01,0.79,2.71,1.54,5.74,1.54H364.96z M357.93,371.87
			c-1.41,0-2.63-0.95-2.63-2.21c0-1.3,1.21-2.29,2.63-2.29c1.45,0,2.67,0.99,2.67,2.29C360.6,370.92,359.38,371.87,357.93,371.87z"
			/>
		<path class="st1" d="M378,364.56c-2.83-0.08-4.36-0.79-5.33-1.54c-1.09,0.75-2.91,1.54-6.1,1.54h-1.94v-4.11h3.63
			c0.65,0,1.17-0.16,1.58-0.47v-13.19h6.3v13.47c0.44,0.28,0.93,0.43,1.58,0.43c1.37,0,2.14-0.71,2.14-1.82v-12.08h6.3v13.47
			c0.44,0.28,0.97,0.43,1.58,0.43c1.41,0,2.18-0.71,2.18-1.82v-12.08h6.26v12.04c0,3.36-2.5,5.69-6.75,5.69
			c-3.19,0-5.01-0.75-6.1-1.54C382.36,363.77,380.79,364.48,378,364.56z"/>
		<path class="st1" d="M406.92,360.46h7.55c1.33,0,2.02-0.67,2.02-1.54c0-0.24-0.08-0.47-0.16-0.71c-0.2-0.63-2.79-7.03-2.79-7.03
			h-1.25v-4.38h5.86c0,0,2.02,4.74,5.09,11.89c0.69,1.34,1.53,1.78,2.99,1.78h2.38v4.11h-2.18c-2.58,0-4.2-0.51-5.29-1.18
			c-1.17,0.83-2.63,1.18-3.92,1.18h-10.3V360.46z"/>
		<path class="st1" d="M430.18,371.87c-1.45,0-2.63-0.95-2.63-2.21c0-1.3,1.17-2.29,2.63-2.29c1.45,0,2.67,0.99,2.67,2.29
			C432.84,370.92,431.63,371.87,430.18,371.87z M444.15,364.56v-4.11h-2.18c-1.41,0-2.18-0.71-2.18-1.86v-11.81h-6.3v13.19
			c-0.4,0.32-0.93,0.47-1.58,0.47h-3.63v4.11h1.94c3.19,0,5.01-0.79,6.1-1.54c1.01,0.79,2.71,1.54,5.74,1.54H444.15z M437.13,371.87
			c-1.41,0-2.63-0.95-2.63-2.21c0-1.3,1.21-2.29,2.63-2.29c1.45,0,2.67,0.99,2.67,2.29C439.79,370.92,438.58,371.87,437.13,371.87z"
			/>
		<path class="st1" d="M443.59,360.46h5.45c-0.73-1.38-1.09-3.08-1.09-4.98c0-5.21,3.03-9,8.32-9c5.37,0,8.36,3.79,8.36,9
			c0,5.25-3.03,9.08-8.36,9.08h-12.68V360.46z M458.37,355.4c0-2.92-0.36-5.13-2.1-5.13c-1.74,0-2.1,2.21-2.1,5.13
			c0,2.96,0.4,5.02,2.1,5.02C458.01,360.42,458.37,358.36,458.37,355.4z"/>
		<path class="st1" d="M498.92,364.56h-2.54c-0.81,0-1.49-0.04-2.14-0.12v0.43c0,4.5-4.73,7.07-9.41,7.07
			c-4.69,0-9.45-2.57-9.45-7.03v-11.25h6.3v11.18c0,1.62,1.98,2.29,3.15,2.29c1.25,0,3.11-0.71,3.11-2.29v-25.71h6.3v20.14
			c0.24,0.75,0.93,1.18,2.1,1.18h2.58V364.56z"/>
		<path class="st1" d="M498.31,360.46h5.45c-0.73-1.38-1.09-3.08-1.09-4.98c0-5.21,3.03-9,8.32-9c5.37,0,8.36,3.79,8.36,9
			c0,5.25-3.03,9.08-8.36,9.08h-12.68V360.46z M513.09,355.4c0-2.92-0.36-5.13-2.1-5.13c-1.74,0-2.1,2.21-2.1,5.13
			c0,2.96,0.4,5.02,2.1,5.02C512.73,360.42,513.09,358.36,513.09,355.4z"/>
		<path class="st1" d="M534.94,364.56h-2.54c-5.25,0-8-1.7-8-6.24v-19.19h6.26v19.63c0,0.87,0.53,1.7,1.9,1.7h2.38V364.56z"/>
		<path class="st1" d="M553.2,360.46v4.11h-18.82v-4.11h5.66c-0.65-1.38-1.01-3-1.01-5.01c0-5.96,3.59-8.96,7.55-8.96
			c2.22,0,3.72,0.55,4.6,1.26l-1.25,3.2c-0.4-0.36-0.97-0.63-1.86-0.63c-1.7,0-2.87,1.78-2.87,5.09c0,3.2,1.21,5.05,2.87,5.05H553.2
			z"/>
		<path class="st1" d="M552.26,360.46h5.45c-0.73-1.38-1.09-3.08-1.09-4.98c0-5.21,3.03-9,8.32-9c5.37,0,8.36,3.79,8.36,9
			c0,5.25-3.03,9.08-8.36,9.08h-12.68V360.46z M567.05,355.4c0-2.92-0.36-5.13-2.1-5.13c-1.74,0-2.1,2.21-2.1,5.13
			c0,2.96,0.4,5.02,2.1,5.02C566.68,360.42,567.05,358.36,567.05,355.4z"/>
	</g>
	<rect x="61.59" y="139.12" class="st0" width="26.78" height="96.67"/>
	<g>
		<path d="M57.75,314.52v-29.06h15.37l11.54,21.23l10.85-21.23h15.46v29.06H99.93v-10.83l0.46-9.94l-10.94,20.64h-9.83l-11.4-20.64
			l0.46,9.94v10.83H57.75z"/>
		<path d="M139.36,314.82c-7.79,0-12.8-1.06-15.05-3.19c-1.41-1.35-2.12-3.14-2.12-5.35v-9.23c0-5.06,5.89-7.6,17.68-7.6
			c6.28,0,10.63,0.67,13.04,2c2.41,1.33,3.62,3.23,3.62,5.68v5.3h-22.02v4.87c0,1.72,0.42,2.81,1.25,3.28
			c0.83,0.47,2.08,0.7,3.74,0.7c1.66,0,2.74-0.14,3.23-0.41c0.83-0.48,1.31-0.98,1.43-1.49c0.12-0.51,0.19-1.2,0.19-2.08v-2.18
			h12.09v1.32c0,2.25-0.49,3.86-1.47,4.84c-0.99,0.98-2.13,1.69-3.42,2.13C148.83,314.35,144.77,314.82,139.36,314.82z
			 M134.46,299.88h9.88v-3.17c0-1.35-0.3-2.32-0.9-2.91c-0.6-0.59-1.82-0.88-3.67-0.88h-0.05c-3.2,0-4.92,0.87-5.17,2.63
			c-0.06,0.33-0.09,0.76-0.09,1.29V299.88z"/>
		<path d="M179.14,314.77c-3.72,0-6.51-0.37-8.35-1.12c-1.85-0.75-3.04-1.7-3.58-2.85c-0.54-1.15-0.81-2.54-0.81-4.18v-10.09
			c0-2.07,1.06-3.77,3.19-5.09c2.12-1.32,5.63-1.98,10.52-1.98c1.91,0,3.65,0.17,5.24,0.5c1.58,0.33,2.82,0.78,3.71,1.34v-6.08
			h12.23v29.31h-12.23v-2.3C187.22,313.93,183.91,314.77,179.14,314.77z M179.81,310.27c0.72,0.68,2.08,1.02,4.06,1.02
			c1.98,0,3.35-0.34,4.11-1.02c0.75-0.68,1.13-1.81,1.13-3.39v-9.91c0-2.03-0.86-3.27-2.58-3.7c-0.74-0.18-1.63-0.26-2.68-0.26
			c-2.06,0-3.43,0.34-4.11,1.01c-0.68,0.67-1.02,1.67-1.02,3.01v10.19C178.73,308.58,179.09,309.6,179.81,310.27z"/>
		<path d="M213.53,287.48v-3.8h12.33v3.8H213.53z M213.67,314.52v-24.77h12.23v24.77H213.67z"/>
		<path d="M254.85,314.82c-6.92,0-11.61-0.73-14.06-2.2c-2.44-1.46-3.67-3.58-3.67-6.36v-8.02c0-3.6,1.75-6.03,5.26-7.28
			c2.8-1,7.03-1.5,12.7-1.5c5.66,0,9.75,0.61,12.28,1.84c2.52,1.23,3.78,3,3.78,5.31v2.72h-11.81v-2.87c0-1.51-0.38-2.45-1.13-2.84
			c-0.76-0.38-2.02-0.58-3.81-0.58s-3.05,0.29-3.8,0.86c-0.76,0.57-1.13,1.45-1.13,2.63v11.16c0,1.22,0.34,2.12,1.04,2.69
			c0.69,0.57,2.04,0.86,4.04,0.86c2.74-0.01,4.29-0.7,4.66-2.06c0.09-0.32,0.14-0.69,0.14-1.12c0-0.11,0-0.23,0-0.35v-2.94h11.81
			v2.51c0,2.42-1.26,4.28-3.78,5.59C264.83,314.17,260.66,314.82,254.85,314.82z"/>
		<path d="M293.2,314.77c-4.52,0-7.75-0.58-9.69-1.74c-1.94-1.16-2.94-2.83-3-5.01v-1.58c0-2.11,1.6-3.72,4.8-4.81
			c2.06-0.71,5.55-1.41,10.48-2.08c0.89-0.12,2.13-0.29,3.72-0.5c1.58-0.21,2.7-0.36,3.35-0.44v-2.16c0-1.34-0.27-2.25-0.81-2.73
			c-0.54-0.48-1.77-0.72-3.69-0.72c-1.93,0-3.21,0.25-3.85,0.76c-0.65,0.51-0.97,1.36-0.97,2.56v1.11h-12.1v-0.74
			c0-2.34,1.22-4.13,3.67-5.37c2.44-1.23,6.78-1.85,13.01-1.85c6.24,0,10.67,0.62,13.29,1.85c2.63,1.23,3.95,3.08,3.95,5.55v17.67
			h-12.33v-2.46c-0.61,0.76-1.8,1.4-3.53,1.92C297.76,314.51,295.66,314.77,293.2,314.77z M302.85,301.08
			c-3.88,0.62-6.49,1.2-7.85,1.75c-1.36,0.55-2.03,1.4-2.03,2.56v2.66c0,1.16,0.34,1.98,1.01,2.48c0.68,0.5,1.78,0.75,3.3,0.75
			c1.52,0,2.77-0.19,3.74-0.55c0.97-0.37,1.58-0.79,1.82-1.25V301.08z"/>
		<path d="M327.08,314.52v-29.31h12.18v29.31H327.08z"/>
	</g>
	<path class="st0" d="M160.93,51.91c0,0-3.21,13.74-9.46,25.23c-4.99,9.17-11.86,17.36-17.1,26.41c-3.99,6.89-7.92,14.24-8.99,22.15
		c-1.12,8.28,2.12,14.95,7.06,21.53c7.54,10.05,17.58,13.83,30.22,13.83c23.13,0,40.98-26.82,30.2-46.95
		C187.92,104.88,158.15,63.65,160.93,51.91z"/>
	<path class="st2" d="M170.81,93.63c0,0,20.05,26.98,7.55,54.47c0,0,14.06-4.5,12.24-20.24C188.78,112.12,170.81,93.63,170.81,93.63
		z"/>
</g>
</svg>
